<svg xmlns="http://www.w3.org/2000/svg" viewBox="0 0 84 25">
  <g>
    <g>
      <path d="M22.66,8.72a8.46,8.46,0,0,1-1.66,5,9.14,9.14,0,0,1-1.61,1.68,8.81,8.81,0,0,1-1.25.84,9.46,9.46,0,0,1-3.71,1.13l-.32,0a5.48,5.48,0,0,0,.13-1.15,3.74,3.74,0,0,1,1.92-3.23h0l.05,0a5.16,5.16,0,0,0,.93-.68A4.91,4.91,0,0,0,18,11.29a4.76,4.76,0,0,0,.73-2.57,4.89,4.89,0,0,0-.13-1.15,5.55,5.55,0,0,0-.51-1.26,5.29,5.29,0,0,0-9.07,0,10.59,10.59,0,0,0-4.4.94A9,9,0,0,1,13.6,0a9,9,0,0,1,8.93,7.25A8,8,0,0,1,22.66,8.72Z"></path>
      <path d="M27.19,16.28A8.89,8.89,0,0,1,18.13,25,9.35,9.35,0,0,1,15,24.46,10.16,10.16,0,0,0,18,21.26h.09a5.09,5.09,0,0,0,5.18-5,4.77,4.77,0,0,0-.74-2.57,9.69,9.69,0,0,0,1.35-4.15A8.61,8.61,0,0,1,27.19,16.28Z"></path>
      <path d="M17.48,8.72a3.59,3.59,0,0,1-.28,1.39,3.66,3.66,0,0,1-.73,1.13,3.88,3.88,0,0,1-.9.7h0l0,0a5,5,0,0,0-1.82,1.73l-.09.16A4.73,4.73,0,0,0,13,16.27a3.77,3.77,0,0,1-3,3.65,8.19,8.19,0,0,1-.71-2.18,7.81,7.81,0,0,1-.13-1.47,8.29,8.29,0,0,1,.84-3.65,1.47,1.47,0,0,1,.14-.28,7.23,7.23,0,0,1,.51-.84l.18-.26a8.82,8.82,0,0,1,2.87-2.52A8.7,8.7,0,0,1,15,8.09a9.23,9.23,0,0,1,2.31-.5A3.81,3.81,0,0,1,17.48,8.72Z"></path>
      <path d="M18,17.75a8.31,8.31,0,0,1-.71,2.18,7.72,7.72,0,0,1-.64,1.12,9,9,0,0,1-3,2.78,8.7,8.7,0,0,1-1.39.63A9.35,9.35,0,0,1,9.06,25,8.89,8.89,0,0,1,0,16.28,8.59,8.59,0,0,1,3.28,9.56a8.81,8.81,0,0,1,1.25-.84,9.28,9.28,0,0,1,4-1.15l.51,0c.29,0,.56,0,.83,0a8.73,8.73,0,0,1,2.31.51,10.41,10.41,0,0,0-2.22,2,11,11,0,0,0-.84,1.18H9.06a5.29,5.29,0,0,0-3.57,1.36,5.84,5.84,0,0,0-.88,1.05,4.81,4.81,0,0,0-.73,2.57,5.09,5.09,0,0,0,5.18,5h.08a5.38,5.38,0,0,0,1.4-.21,5.12,5.12,0,0,0,3.05-2.36,10.41,10.41,0,0,0,1.48-.1A11,11,0,0,0,18,17.75Z"></path>
      <path d="M84,18.71a3,3,0,0,1-1.46.37,3.12,3.12,0,0,1-1-.15,2.83,2.83,0,0,1-1.94-2.65V7.87H78.34V6h1.29V4.13h1.94V6h1.94V7.87H81.57v8.41a1,1,0,0,0,1,.93,1,1,0,0,0,.49-.12Z"></path>
      <path d="M71.86,7.87A5.71,5.71,0,0,0,66,13.47a5.83,5.83,0,0,0,11.66,0A5.71,5.71,0,0,0,71.86,7.87Zm0,9.34A3.81,3.81,0,0,1,68,13.47a3.89,3.89,0,0,1,7.77,0A3.81,3.81,0,0,1,71.86,17.21Z"></path>
      <path d="M64.09,4.13H62.15v15h1.94Z"></path>
      <path d="M60.21,7.87H58.27V19.08h1.94Z"></path>
      <path d="M59.24,7.24A1.25,1.25,0,1,0,57.94,6,1.26,1.26,0,0,0,59.24,7.24Z"></path>
      <path d="M50.5,7.87a5.94,5.94,0,0,0-3.89,1.42,5.52,5.52,0,0,0-1.94,4.18v9.35h1.94V17.66a6,6,0,0,0,3.89,1.42,5.71,5.71,0,0,0,5.82-5.61A5.7,5.7,0,0,0,50.5,7.87Zm0,9.34a3.81,3.81,0,0,1-3.89-3.74,3.89,3.89,0,0,1,7.77,0A3.81,3.81,0,0,1,50.5,17.21Z"></path>
      <path d="M42.73,13.47a5.64,5.64,0,0,0-.08-.93,5.87,5.87,0,0,0-11.49,0,4.73,4.73,0,0,0-.08.93,4.9,4.9,0,0,0,.08.94,5.34,5.34,0,0,0,.69,1.87,6,6,0,0,0,10.1,0H39.48a4,4,0,0,1-5.14,0,3.8,3.8,0,0,1-1.19-1.87h9.5A5.86,5.86,0,0,0,42.73,13.47Zm-9.59-.93a3.92,3.92,0,0,1,7.52,0Z"></path>
    </g>
  </g>
</svg>